<?xml version="1.0" standalone="no"?><!DOCTYPE svg PUBLIC "-//W3C//DTD SVG 1.1//EN" "http://www.w3.org/Graphics/SVG/1.1/DTD/svg11.dtd"><svg t="1660146898599" class="icon" viewBox="0 0 1024 1024" version="1.1" xmlns="http://www.w3.org/2000/svg" p-id="2927" xmlns:xlink="http://www.w3.org/1999/xlink" width="200" height="200"><defs><style type="text/css">@font-face { font-family: feedback-iconfont; src: url("//at.alicdn.com/t/font_1031158_u69w8yhxdu.woff2?t=1630033759944") format("woff2"), url("//at.alicdn.com/t/font_1031158_u69w8yhxdu.woff?t=1630033759944") format("woff"), url("//at.alicdn.com/t/font_1031158_u69w8yhxdu.ttf?t=1630033759944") format("truetype"); }
</style></defs><path d="M832 128 192 128C139.072 128 96 171.072 96 224l0 512c0 52.928 43.072 96 96 96l210.752 0 86.624 86.624C495.616 924.864 503.808 928 512 928s16.384-3.136 22.624-9.376L621.248 832 832 832c52.928 0 96-43.072 96-96L928 224C928 171.072 884.928 128 832 128zM336 512C309.536 512 288 490.464 288 464S309.536 416 336 416s48 21.536 48 48S362.464 512 336 512zM528 512c-26.464 0-48-21.536-48-48s21.536-48 48-48 48 21.536 48 48S554.464 512 528 512zM720 512c-26.464 0-48-21.536-48-48s21.536-48 48-48 48 21.536 48 48S746.464 512 720 512z" p-id="2928"></path></svg>