<?xml version="1.0" standalone="no"?><!DOCTYPE svg PUBLIC "-//W3C//DTD SVG 1.1//EN" "http://www.w3.org/Graphics/SVG/1.1/DTD/svg11.dtd"><svg t="1660406533852" class="icon" viewBox="0 0 1170 1024" version="1.1" xmlns="http://www.w3.org/2000/svg" p-id="12846" xmlns:xlink="http://www.w3.org/1999/xlink" width="228.515625" height="200"><defs><style type="text/css">@font-face { font-family: feedback-iconfont; src: url("//at.alicdn.com/t/font_1031158_u69w8yhxdu.woff2?t=1630033759944") format("woff2"), url("//at.alicdn.com/t/font_1031158_u69w8yhxdu.woff?t=1630033759944") format("woff"), url("//at.alicdn.com/t/font_1031158_u69w8yhxdu.ttf?t=1630033759944") format("truetype"); }
</style></defs><path d="M841.134446 1024a36.790489 36.790489 0 0 1-17.590681-4.46167L490.052242 837.487579h-110.627465C173.74912 837.487579 0 656.095108 0 441.45954V373.035081A376.681947 376.681947 0 0 1 379.424777 0.01024h411.424457A376.681947 376.681947 0 0 1 1170.274012 373.035081v68.278174a369.367735 369.367735 0 0 1-292.568503 363.955218V987.428937a36.571063 36.571063 0 0 1-36.571063 36.571063zM379.424777 72.823226A303.539822 303.539822 0 0 0 73.142126 373.035081v68.278174c0 172.139993 143.13914 323.141911 306.282651 323.141912h119.989657a36.900202 36.900202 0 0 1 17.590682 4.46167L804.563383 926.099265v-150.233927a36.571063 36.571063 0 0 1 30.28084-35.839641C994.184344 712.26826 1097.131886 595.058004 1097.131886 441.45954V373.035081a303.539822 303.539822 0 0 0-306.282652-300.358139h-411.424457z" p-id="12847"></path></svg>