<?xml version="1.0" standalone="no"?><!DOCTYPE svg PUBLIC "-//W3C//DTD SVG 1.1//EN" "http://www.w3.org/Graphics/SVG/1.1/DTD/svg11.dtd"><svg t="1660447062215" class="icon" viewBox="0 0 1024 1024" version="1.1" xmlns="http://www.w3.org/2000/svg" p-id="6215" xmlns:xlink="http://www.w3.org/1999/xlink" width="200" height="200"><defs><style type="text/css">@font-face { font-family: feedback-iconfont; src: url("//at.alicdn.com/t/font_1031158_u69w8yhxdu.woff2?t=1630033759944") format("woff2"), url("//at.alicdn.com/t/font_1031158_u69w8yhxdu.woff?t=1630033759944") format("woff"), url("//at.alicdn.com/t/font_1031158_u69w8yhxdu.ttf?t=1630033759944") format("truetype"); }
</style></defs><path d="M170.672 0h682.656v1024l-341.344-230.4L170.64 1024V0z m498.944 597.344l-122.752-195.264 120.992-192h-57.248l-80 132.736c-5.824 10.176-10.752 19.744-14.752 28.736h-0.992a263.104 263.104 0 0 0-13.504-27.488L424.848 210.048H363.6l118.496 192.736-128.736 194.496h60.992l88.992-145.504c5.664-12.16 8.672-18.912 8.992-20.256h1.248c3.84 10.016 6.752 16.672 8.736 20l86.496 145.76h60.736z" p-id="6216"></path></svg>