<?xml version="1.0" standalone="no"?><!DOCTYPE svg PUBLIC "-//W3C//DTD SVG 1.1//EN" "http://www.w3.org/Graphics/SVG/1.1/DTD/svg11.dtd"><svg t="1660147284584" class="icon" viewBox="0 0 1024 1024" version="1.1" xmlns="http://www.w3.org/2000/svg" p-id="20736" xmlns:xlink="http://www.w3.org/1999/xlink" width="200" height="200"><defs><style type="text/css">@font-face { font-family: feedback-iconfont; src: url("//at.alicdn.com/t/font_1031158_u69w8yhxdu.woff2?t=1630033759944") format("woff2"), url("//at.alicdn.com/t/font_1031158_u69w8yhxdu.woff?t=1630033759944") format("woff"), url("//at.alicdn.com/t/font_1031158_u69w8yhxdu.ttf?t=1630033759944") format("truetype"); }
</style></defs><path d="M512 341.333333c-94.293333 0-170.666667 76.373333-170.666667 170.666667s76.373333 170.666667 170.666667 170.666667 170.666667-76.373333 170.666667-170.666667-76.373333-170.666667-170.666667-170.666667z m-341.333333 298.666667c-23.466667 0-42.666667 19.2-42.666667 42.666667v128c0 46.933333 38.4 85.333333 85.333333 85.333333h128c23.466667 0 42.666667-19.2 42.666667-42.666667s-19.2-42.666667-42.666667-42.666666H256c-23.466667 0-42.666667-19.2-42.666667-42.666667v-85.333333c0-23.466667-19.2-42.666667-42.666666-42.666667z m42.666666-384c0-23.466667 19.2-42.666667 42.666667-42.666667h85.333333c23.466667 0 42.666667-19.2 42.666667-42.666666s-19.2-42.666667-42.666667-42.666667H213.333333c-46.933333 0-85.333333 38.4-85.333333 85.333333v128c0 23.466667 19.2 42.666667 42.666667 42.666667s42.666667-19.2 42.666666-42.666667V256z m597.333334-128h-128c-23.466667 0-42.666667 19.2-42.666667 42.666667s19.2 42.666667 42.666667 42.666666h85.333333c23.466667 0 42.666667 19.2 42.666667 42.666667v85.333333c0 23.466667 19.2 42.666667 42.666666 42.666667s42.666667-19.2 42.666667-42.666667V213.333333c0-46.933333-38.4-85.333333-85.333333-85.333333z m0 640c0 23.466667-19.2 42.666667-42.666667 42.666667h-85.333333c-23.466667 0-42.666667 19.2-42.666667 42.666666s19.2 42.666667 42.666667 42.666667h128c46.933333 0 85.333333-38.4 85.333333-85.333333v-128c0-23.466667-19.2-42.666667-42.666667-42.666667s-42.666667 19.2-42.666666 42.666667v85.333333z" p-id="20737"></path></svg>