<?xml version="1.0" standalone="no"?><!DOCTYPE svg PUBLIC "-//W3C//DTD SVG 1.1//EN" "http://www.w3.org/Graphics/SVG/1.1/DTD/svg11.dtd"><svg t="1660447008640" class="icon" viewBox="0 0 1024 1024" version="1.1" xmlns="http://www.w3.org/2000/svg" p-id="4058" xmlns:xlink="http://www.w3.org/1999/xlink" width="200" height="200"><defs><style type="text/css">@font-face { font-family: feedback-iconfont; src: url("//at.alicdn.com/t/font_1031158_u69w8yhxdu.woff2?t=1630033759944") format("woff2"), url("//at.alicdn.com/t/font_1031158_u69w8yhxdu.woff?t=1630033759944") format("woff"), url("//at.alicdn.com/t/font_1031158_u69w8yhxdu.ttf?t=1630033759944") format("truetype"); }
</style></defs><path d="M730.614 612.961c-27.79 14.626-52.036 35.076-71.115 59.728C615.725 648.664 565.459 635 512 635c-169.551 0-307 137.449-307 307 0 24.3-19.7 44-44 44s-44-19.7-44-44c0-163.047 98.787-303.02 239.774-363.332C279.812 528.088 229 440.978 229 342c0-156.297 126.703-283 283-283s283 126.703 283 283c0 98.978-50.812 186.088-127.774 236.668a394.09 394.09 0 0 1 63.388 34.293zM512 537c107.696 0 195-87.304 195-195s-87.304-195-195-195-195 87.304-195 195 87.304 195 195 195z m252.887 268.8l-64.974-64.973c-17.183-17.183-17.183-45.043 0-62.226s45.043-17.183 62.226 0l64.974 64.974 64.974-64.974c17.183-17.183 45.042-17.183 62.225 0s17.183 45.043 0 62.226L889.338 805.8l64.974 64.974c17.183 17.183 17.183 45.042 0 62.225s-45.042 17.183-62.225 0l-64.974-64.974L762.139 933c-17.183 17.183-45.043 17.183-62.226 0s-17.183-45.042 0-62.225l64.974-64.974z" p-id="4059"></path></svg>