<?xml version="1.0" standalone="no"?><!DOCTYPE svg PUBLIC "-//W3C//DTD SVG 1.1//EN" "http://www.w3.org/Graphics/SVG/1.1/DTD/svg11.dtd"><svg t="1660392017918" class="icon" viewBox="0 0 1024 1024" version="1.1" xmlns="http://www.w3.org/2000/svg" p-id="16791" xmlns:xlink="http://www.w3.org/1999/xlink" width="200" height="200"><defs><style type="text/css">@font-face { font-family: feedback-iconfont; src: url("//at.alicdn.com/t/font_1031158_u69w8yhxdu.woff2?t=1630033759944") format("woff2"), url("//at.alicdn.com/t/font_1031158_u69w8yhxdu.woff?t=1630033759944") format("woff"), url("//at.alicdn.com/t/font_1031158_u69w8yhxdu.ttf?t=1630033759944") format("truetype"); }
</style></defs><path d="M192 426.666667H256a42.666667 42.666667 0 0 1 42.666667 42.666666v341.333334a42.666667 42.666667 0 0 1-42.666667 42.666666H192A106.666667 106.666667 0 0 1 85.333333 746.666667v-213.333334A106.666667 106.666667 0 0 1 192 426.666667z m21.333333 341.333333v-256h-21.333333a21.333333 21.333333 0 0 0-21.333333 21.333333v213.333334a21.333333 21.333333 0 0 0 21.333333 21.333333H213.333333z m170.666667-384c27.306667-27.306667 42.666667-64.384 42.666667-102.997333V213.333333a42.666667 42.666667 0 0 1 42.666666-42.666666c2.346667 0 4.693333 0.042667 6.997334 0.426666l101.12 17.066667A125.866667 125.866667 0 0 1 682.666667 312.32V341.333333a85.333333 85.333333 0 0 0 85.333333 85.333334h42.666667c70.144 0 128 57.856 128 128 0 12.373333-2.005333 24.448-5.546667 36.266666l-52.437333 171.178667A128 128 0 0 1 758.101333 853.333333H426.666667a85.333333 85.333333 0 0 1-85.333334-85.333333v-281.002667C341.333333 448.426667 356.693333 411.306667 384 384z m128-110.506667c0 61.269333-24.32 127.530667-67.669333 170.837334a60.330667 60.330667 0 0 0-17.664 42.666666V750.933333c0 9.386667 7.68 17.066667 17.066666 17.066667h314.368a42.666667 42.666667 0 0 0 40.874667-30.421333l52.224-171.946667a42.069333 42.069333 0 0 0 2.133333-11.946667c0-23.04-19.626667-41.685333-42.666666-41.685333h-42.666667a170.666667 170.666667 0 0 1-170.666667-170.666667v-29.013333a40.661333 40.661333 0 0 0-33.92-40.106667l-41.728-6.912A8.32 8.32 0 0 0 512 273.493333z" p-id="16792"></path></svg>