<?xml version="1.0" standalone="no"?><!DOCTYPE svg PUBLIC "-//W3C//DTD SVG 1.1//EN" "http://www.w3.org/Graphics/SVG/1.1/DTD/svg11.dtd"><svg t="1660146823469" class="icon" viewBox="0 0 1024 1024" version="1.1" xmlns="http://www.w3.org/2000/svg" p-id="1748" xmlns:xlink="http://www.w3.org/1999/xlink" width="200" height="200"><defs><style type="text/css">@font-face { font-family: feedback-iconfont; src: url("//at.alicdn.com/t/font_1031158_u69w8yhxdu.woff2?t=1630033759944") format("woff2"), url("//at.alicdn.com/t/font_1031158_u69w8yhxdu.woff?t=1630033759944") format("woff"), url("//at.alicdn.com/t/font_1031158_u69w8yhxdu.ttf?t=1630033759944") format("truetype"); }
</style></defs><path d="M42.666667 896l170.666667 0L213.333333 384 42.666667 384 42.666667 896zM981.333333 426.666667c0-46.933333-38.4-85.333333-85.333333-85.333333l-268.8 0 42.666667-196.266667c0-4.266667 0-8.533333 0-12.8 0-17.066667-8.533333-34.133333-17.066667-46.933333L605.866667 42.666667 324.266667 324.266667C307.2 337.066667 298.666667 358.4 298.666667 384l0 426.666667c0 46.933333 38.4 85.333333 85.333333 85.333333l384 0c34.133333 0 64-21.333333 76.8-51.2l128-302.933333c4.266667-8.533333 4.266667-21.333333 4.266667-29.866667L977.066667 426.666667 981.333333 426.666667C981.333333 430.933333 981.333333 426.666667 981.333333 426.666667z" p-id="1749"></path></svg>