<?xml version="1.0" standalone="no"?><!DOCTYPE svg PUBLIC "-//W3C//DTD SVG 1.1//EN" "http://www.w3.org/Graphics/SVG/1.1/DTD/svg11.dtd"><svg t="1660446979150" class="icon" viewBox="0 0 1024 1024" version="1.1" xmlns="http://www.w3.org/2000/svg" p-id="2767" xmlns:xlink="http://www.w3.org/1999/xlink" width="200" height="200"><defs><style type="text/css">@font-face { font-family: feedback-iconfont; src: url("//at.alicdn.com/t/font_1031158_u69w8yhxdu.woff2?t=1630033759944") format("woff2"), url("//at.alicdn.com/t/font_1031158_u69w8yhxdu.woff?t=1630033759944") format("woff"), url("//at.alicdn.com/t/font_1031158_u69w8yhxdu.ttf?t=1630033759944") format("truetype"); }
</style></defs><path d="M512 62.317714a449.682286 449.682286 0 1 1 0 899.364572A449.682286 449.682286 0 0 1 512 62.317714z m0 102.4a347.282286 347.282286 0 1 0 0 694.564572 347.282286 347.282286 0 0 0 0-694.564572z m130.779429 561.517715c7.387429 20.187429 29.988571 30.573714 50.468571 23.625142a38.619429 38.619429 0 0 0 24.429714-49.883428C686.811429 616.228571 604.525714 559.981714 512 559.981714s-174.811429 56.246857-205.677714 139.995429a38.619429 38.619429 0 0 0 24.356571 49.883428c20.48 6.948571 43.154286-3.437714 50.541714-23.625142 19.456-52.809143 71.68-88.502857 130.779429-88.502858 59.026286 0 111.323429 35.693714 130.779429 88.502858zM384 351.963429a64 64 0 1 1-6.144 0.292571l6.144-0.292571z m256 0a64 64 0 1 1-6.144 0.292571l6.144-0.292571z" p-id="2768"></path></svg>